<svg xmlns="http://www.w3.org/2000/svg" width="800" height="500" viewBox="0 0 800 500">
  <defs>
    <linearGradient id="bg" x1="0" y1="0" x2="1" y2="1">
      <stop offset="0%" stop-color="#0a0a0a"/>
      <stop offset="100%" stop-color="#1a1a2e"/>
    </linearGradient>
  </defs>
  <rect width="800" height="500" fill="url(#bg)" rx="12"/>
  <rect x="40" y="40" width="720" height="50" rx="8" fill="#0f172a"/>
  <circle cx="70" cy="65" r="14" fill="#fbbf24"/>
  <text x="400" y="72" font-family="system-ui" font-size="18" font-weight="600" fill="white" text-anchor="middle">AI Design Chat</text>
  <rect x="60" y="120" width="280" height="60" rx="12" fill="#1e293b"/>
  <rect x="80" y="138" width="200" height="10" rx="3" fill="#94a3b8"/>
  <rect x="80" y="156" width="160" height="10" rx="3" fill="#64748b"/>
  <rect x="460" y="200" width="280" height="80" rx="12" fill="#fbbf24" opacity="0.15"/>
  <rect x="480" y="218" width="220" height="10" rx="3" fill="#fbbf24" opacity="0.7"/>
  <rect x="480" y="236" width="180" height="10" rx="3" fill="#fbbf24" opacity="0.5"/>
  <rect x="480" y="254" width="140" height="10" rx="3" fill="#fbbf24" opacity="0.3"/>
  <rect x="60" y="310" width="320" height="60" rx="12" fill="#1e293b"/>
  <rect x="80" y="328" width="260" height="10" rx="3" fill="#94a3b8"/>
  <rect x="80" y="346" width="200" height="10" rx="3" fill="#64748b"/>
  <rect x="40" y="420" width="720" height="50" rx="25" fill="#1e293b"/>
  <rect x="60" y="438" width="300" height="14" rx="4" fill="#334155"/>
  <circle cx="720" cy="445" r="18" fill="#fbbf24"/>
</svg>
