<svg xmlns="http://www.w3.org/2000/svg" width="800" height="500" viewBox="0 0 800 500">
  <defs>
    <linearGradient id="bg" x1="0" y1="0" x2="800" y2="500" gradientUnits="userSpaceOnUse">
      <stop stop-color="#0a0a0a"/>
      <stop offset="1" stop-color="#0f172a"/>
    </linearGradient>
  </defs>

  <!-- Window chrome -->
  <rect width="800" height="500" rx="10" fill="url(#bg)"/>
  <rect width="800" height="36" rx="10" fill="#1e293b"/>
  <rect y="26" width="800" height="10" fill="#1e293b"/>
  <circle cx="20" cy="18" r="5" fill="#ef4444" opacity=".7"/>
  <circle cx="38" cy="18" r="5" fill="#eab308" opacity=".7"/>
  <circle cx="56" cy="18" r="5" fill="#22c55e" opacity=".7"/>
  <rect x="300" y="10" width="200" height="16" rx="4" fill="#0f172a"/>
  <text x="400" y="22" text-anchor="middle" font-family="ui-monospace,monospace" font-size="9" fill="#64748b">nexus-ai.techtideai.io/dashboard/chat</text>

  <!-- Sidebar (collapsed) -->
  <rect x="0" y="36" width="56" height="464" fill="#0f172a"/>
  <rect x="16" y="56" width="24" height="24" rx="6" fill="#fbbf24"/>
  <rect x="18" y="100" width="20" height="20" rx="4" fill="#334155" opacity=".4"/>
  <rect x="18" y="130" width="20" height="20" rx="4" fill="#334155" opacity=".4"/>
  <rect x="18" y="160" width="20" height="20" rx="4" fill="#fbbf24" fill-opacity=".15" stroke="#fbbf24" stroke-opacity=".3"/>
  <rect x="18" y="190" width="20" height="20" rx="4" fill="#334155" opacity=".4"/>

  <!-- Chat header -->
  <rect x="56" y="36" width="744" height="46" fill="#0f172a" opacity=".6"/>
  <text x="80" y="64" font-family="system-ui,sans-serif" font-size="15" font-weight="600" fill="#f8fafc">AI Design Assistant</text>
  <circle cx="208" y="60" r="4" fill="#22c55e"/>
  <rect x="700" y="52" width="30" height="18" rx="4" fill="#334155" opacity=".4"/>
  <rect x="740" y="52" width="30" height="18" rx="4" fill="#334155" opacity=".4"/>

  <!-- Chat messages -->
  <!-- AI message 1 -->
  <circle cx="86" cy="116" r="14" fill="#1e293b"/>
  <rect x="90" y="110" width="10" height="10" rx="2" fill="#fbbf24" opacity=".6"/>
  <rect x="110" y="100" width="380" height="56" rx="10" fill="#1e293b" opacity=".6"/>
  <rect x="126" y="114" width="240" height="8" rx="2" fill="#f8fafc" opacity=".6"/>
  <rect x="126" y="130" width="320" height="8" rx="2" fill="#94a3b8" opacity=".3"/>
  <rect x="126" y="144" width="180" height="6" rx="2" fill="#64748b" opacity=".2"/>

  <!-- User message 1 -->
  <rect x="400" y="180" width="350" height="44" rx="10" fill="#fbbf24" fill-opacity=".1" stroke="#fbbf24" stroke-opacity=".12"/>
  <rect x="416" y="194" width="260" height="8" rx="2" fill="#fbbf24" opacity=".6"/>
  <rect x="416" y="210" width="160" height="8" rx="2" fill="#fbbf24" opacity=".3"/>

  <!-- AI message 2 (longer) -->
  <circle cx="86" cy="266" r="14" fill="#1e293b"/>
  <rect x="90" y="260" width="10" height="10" rx="2" fill="#fbbf24" opacity=".6"/>
  <rect x="110" y="244" width="440" height="100" rx="10" fill="#1e293b" opacity=".6"/>
  <rect x="126" y="260" width="300" height="8" rx="2" fill="#f8fafc" opacity=".6"/>
  <rect x="126" y="276" width="380" height="8" rx="2" fill="#94a3b8" opacity=".35"/>
  <rect x="126" y="292" width="280" height="8" rx="2" fill="#94a3b8" opacity=".25"/>

  <!-- Code block inside AI message -->
  <rect x="126" y="310" width="400" height="24" rx="4" fill="#0a0a0a" opacity=".5"/>
  <text x="138" y="326" font-family="ui-monospace,monospace" font-size="9" fill="#22d3ee" opacity=".6">const brand = await nexus.generate({ style: &apos;minimal&apos; })</text>

  <!-- User message 2 -->
  <rect x="460" y="368" width="290" height="36" rx="10" fill="#fbbf24" fill-opacity=".1" stroke="#fbbf24" stroke-opacity=".12"/>
  <rect x="476" y="382" width="220" height="8" rx="2" fill="#fbbf24" opacity=".5"/>

  <!-- Input area -->
  <rect x="72" y="440" width="712" height="44" rx="22" fill="#1e293b" opacity=".5" stroke="#334155" stroke-opacity=".3"/>
  <rect x="96" y="458" width="200" height="10" rx="3" fill="#64748b" opacity=".2"/>
  <circle cx="748" cy="462" r="16" fill="#fbbf24"/>
  <path d="M744 462l4-4 4 4M748 458v8" stroke="#0a0a0a" stroke-width="1.5" stroke-linecap="round"/>

  <!-- Typing indicator -->
  <g opacity=".4">
    <circle cx="90" cy="420" r="3" fill="#94a3b8">
      <animate attributeName="opacity" values=".2;.8;.2" dur="1.2s" repeatCount="indefinite"/>
    </circle>
    <circle cx="100" cy="420" r="3" fill="#94a3b8">
      <animate attributeName="opacity" values=".2;.8;.2" dur="1.2s" begin=".2s" repeatCount="indefinite"/>
    </circle>
    <circle cx="110" cy="420" r="3" fill="#94a3b8">
      <animate attributeName="opacity" values=".2;.8;.2" dur="1.2s" begin=".4s" repeatCount="indefinite"/>
    </circle>
  </g>

  <!-- Label -->
  <text x="450" y="496" text-anchor="middle" font-family="system-ui,sans-serif" font-size="10" fill="#334155">AI chat  &#x2014;  Streaming responses via Vercel AI SDK v6</text>
</svg>
