<svg xmlns="http://www.w3.org/2000/svg" width="800" height="500" viewBox="0 0 800 500">
  <defs>
    <linearGradient id="bg" x1="0" y1="0" x2="1" y2="1">
      <stop offset="0%" stop-color="#0a0a0a"/>
      <stop offset="100%" stop-color="#1a1a2e"/>
    </linearGradient>
  </defs>
  <rect width="800" height="500" fill="url(#bg)" rx="12"/>
  <rect x="0" y="0" width="200" height="500" fill="#0f172a" rx="12"/>
  <circle cx="40" cy="40" r="14" fill="#fbbf24"/>
  <rect x="30" y="80" width="140" height="16" rx="4" fill="#334155"/>
  <rect x="30" y="120" width="140" height="16" rx="4" fill="#1e293b"/>
  <rect x="30" y="150" width="140" height="16" rx="4" fill="#1e293b"/>
  <rect x="30" y="180" width="140" height="16" rx="4" fill="#1e293b"/>
  <rect x="30" y="210" width="140" height="16" rx="4" fill="#1e293b"/>
  <text x="500" y="80" font-family="system-ui" font-size="24" font-weight="700" fill="white" text-anchor="middle">Client Dashboard</text>
  <text x="500" y="110" font-family="system-ui" font-size="14" fill="#94a3b8" text-anchor="middle">Projects, assets, billing, team</text>
  <rect x="230" y="140" width="250" height="120" rx="8" fill="#1e293b"/>
  <rect x="500" y="140" width="270" height="120" rx="8" fill="#1e293b"/>
  <rect x="230" y="280" width="540" height="180" rx="8" fill="#1e293b"/>
  <rect x="250" y="310" width="200" height="8" rx="4" fill="#334155"/>
  <rect x="250" y="330" width="160" height="8" rx="4" fill="#334155"/>
  <rect x="250" y="360" width="500" height="30" rx="4" fill="#0f172a"/>
  <rect x="250" y="400" width="500" height="30" rx="4" fill="#0f172a"/>
</svg>
