<svg xmlns="http://www.w3.org/2000/svg" width="800" height="500" viewBox="0 0 800 500">
  <defs>
    <linearGradient id="bg" x1="0" y1="0" x2="800" y2="500" gradientUnits="userSpaceOnUse">
      <stop stop-color="#0a0a0a"/>
      <stop offset="1" stop-color="#0f172a"/>
    </linearGradient>
  </defs>

  <!-- Window chrome -->
  <rect width="800" height="500" rx="10" fill="url(#bg)"/>
  <rect width="800" height="36" rx="10" fill="#1e293b"/>
  <rect y="26" width="800" height="10" fill="#1e293b"/>
  <circle cx="20" cy="18" r="5" fill="#ef4444" opacity=".7"/>
  <circle cx="38" cy="18" r="5" fill="#eab308" opacity=".7"/>
  <circle cx="56" cy="18" r="5" fill="#22c55e" opacity=".7"/>
  <rect x="300" y="10" width="200" height="16" rx="4" fill="#0f172a"/>
  <text x="400" y="22" text-anchor="middle" font-family="ui-monospace,monospace" font-size="9" fill="#64748b">nexus-ai.techtideai.io/dashboard</text>

  <!-- Sidebar -->
  <rect x="0" y="36" width="200" height="464" fill="#0f172a"/>
  <rect x="0" y="490" width="200" height="10" rx="0 0 10 0" fill="#0f172a"/>
  <rect x="20" y="56" width="20" height="20" rx="5" fill="#fbbf24"/>
  <rect x="50" y="61" width="70" height="10" rx="3" fill="#f8fafc" opacity=".7"/>

  <!-- Sidebar nav items -->
  <rect x="16" y="100" width="168" height="32" rx="6" fill="#fbbf24" fill-opacity=".1"/>
  <rect x="30" y="112" width="10" height="10" rx="2" fill="#fbbf24" opacity=".6"/>
  <rect x="50" y="112" width="60" height="8" rx="2" fill="#fbbf24" opacity=".7"/>

  <rect x="30" y="148" width="10" height="10" rx="2" fill="#64748b" opacity=".4"/>
  <rect x="50" y="148" width="50" height="8" rx="2" fill="#64748b" opacity=".3"/>

  <rect x="30" y="174" width="10" height="10" rx="2" fill="#64748b" opacity=".4"/>
  <rect x="50" y="174" width="55" height="8" rx="2" fill="#64748b" opacity=".3"/>

  <rect x="30" y="200" width="10" height="10" rx="2" fill="#64748b" opacity=".4"/>
  <rect x="50" y="200" width="40" height="8" rx="2" fill="#64748b" opacity=".3"/>

  <rect x="30" y="226" width="10" height="10" rx="2" fill="#64748b" opacity=".4"/>
  <rect x="50" y="226" width="46" height="8" rx="2" fill="#64748b" opacity=".3"/>

  <!-- Sidebar divider -->
  <rect x="20" y="260" width="160" height="1" fill="#334155" opacity=".3"/>

  <rect x="30" y="280" width="10" height="10" rx="2" fill="#64748b" opacity=".3"/>
  <rect x="50" y="280" width="36" height="8" rx="2" fill="#64748b" opacity=".2"/>

  <!-- User avatar -->
  <circle cx="35" cy="468" r="14" fill="#334155"/>
  <rect x="56" y="462" width="70" height="8" rx="2" fill="#f8fafc" opacity=".4"/>
  <rect x="56" y="476" width="50" height="6" rx="2" fill="#64748b" opacity=".3"/>

  <!-- Main content area -->
  <text x="228" y="70" font-family="system-ui,sans-serif" font-size="18" font-weight="700" fill="#f8fafc">Overview</text>
  <rect x="660" y="54" width="24" height="24" rx="12" fill="#334155"/>

  <!-- Stat cards row -->
  <rect x="218" y="90" width="138" height="80" rx="8" fill="#1e293b" opacity=".5"/>
  <rect x="232" y="106" width="60" height="6" rx="2" fill="#94a3b8" opacity=".3"/>
  <text x="232" y="140" font-family="system-ui,sans-serif" font-size="24" font-weight="700" fill="#f8fafc">12</text>
  <rect x="232" y="152" width="40" height="6" rx="2" fill="#22c55e" opacity=".5"/>

  <rect x="366" y="90" width="138" height="80" rx="8" fill="#1e293b" opacity=".5"/>
  <rect x="380" y="106" width="50" height="6" rx="2" fill="#94a3b8" opacity=".3"/>
  <text x="380" y="140" font-family="system-ui,sans-serif" font-size="24" font-weight="700" fill="#f8fafc">$24k</text>
  <rect x="380" y="152" width="50" height="6" rx="2" fill="#fbbf24" opacity=".4"/>

  <rect x="514" y="90" width="138" height="80" rx="8" fill="#1e293b" opacity=".5"/>
  <rect x="528" y="106" width="44" height="6" rx="2" fill="#94a3b8" opacity=".3"/>
  <text x="528" y="140" font-family="system-ui,sans-serif" font-size="24" font-weight="700" fill="#f8fafc">847</text>
  <rect x="528" y="152" width="36" height="6" rx="2" fill="#22d3ee" opacity=".4"/>

  <rect x="662" y="90" width="110" height="80" rx="8" fill="#1e293b" opacity=".5"/>
  <rect x="676" y="106" width="40" height="6" rx="2" fill="#94a3b8" opacity=".3"/>
  <text x="676" y="140" font-family="system-ui,sans-serif" font-size="24" font-weight="700" fill="#f8fafc">99%</text>
  <rect x="676" y="152" width="30" height="6" rx="2" fill="#22c55e" opacity=".4"/>

  <!-- Chart area -->
  <rect x="218" y="186" width="340" height="180" rx="8" fill="#1e293b" opacity=".4"/>
  <rect x="234" y="202" width="80" height="8" rx="2" fill="#f8fafc" opacity=".5"/>
  <polyline points="240,340 280,310 320,330 360,280 400,300 440,260 480,270 520,240" stroke="#fbbf24" stroke-width="2" fill="none" opacity=".6"/>
  <polyline points="240,340 280,330 320,340 360,320 400,330 440,310 480,320 520,300" stroke="#22d3ee" stroke-width="1.5" fill="none" opacity=".3" stroke-dasharray="4 2"/>

  <!-- Projects list -->
  <rect x="572" y="186" width="200" height="180" rx="8" fill="#1e293b" opacity=".4"/>
  <rect x="588" y="202" width="60" height="8" rx="2" fill="#f8fafc" opacity=".5"/>
  <rect x="588" y="226" width="168" height="28" rx="4" fill="#0f172a" opacity=".5"/>
  <rect x="600" y="234" width="80" height="8" rx="2" fill="#94a3b8" opacity=".3"/>
  <rect x="588" y="262" width="168" height="28" rx="4" fill="#0f172a" opacity=".5"/>
  <rect x="600" y="270" width="100" height="8" rx="2" fill="#94a3b8" opacity=".3"/>
  <rect x="588" y="298" width="168" height="28" rx="4" fill="#0f172a" opacity=".5"/>
  <rect x="600" y="306" width="70" height="8" rx="2" fill="#94a3b8" opacity=".3"/>
  <rect x="588" y="334" width="168" height="28" rx="4" fill="#fbbf24" fill-opacity=".05" stroke="#fbbf24" stroke-opacity=".1"/>
  <rect x="600" y="342" width="90" height="8" rx="2" fill="#fbbf24" opacity=".3"/>

  <!-- Activity feed -->
  <rect x="218" y="382" width="554" height="100" rx="8" fill="#1e293b" opacity=".3"/>
  <rect x="234" y="398" width="50" height="8" rx="2" fill="#f8fafc" opacity=".5"/>
  <rect x="234" y="420" width="500" height="20" rx="4" fill="#0f172a" opacity=".4"/>
  <rect x="234" y="448" width="500" height="20" rx="4" fill="#0f172a" opacity=".3"/>

  <!-- Label -->
  <text x="500" y="496" text-anchor="middle" font-family="system-ui,sans-serif" font-size="10" fill="#334155">Client dashboard  &#x2014;  Projects, Analytics, Settings, Admin</text>
</svg>
