<svg xmlns="http://www.w3.org/2000/svg" width="800" height="500" viewBox="0 0 800 500">
  <defs>
    <linearGradient id="bg" x1="0" y1="0" x2="1" y2="1">
      <stop offset="0%" stop-color="#0a0a0a"/>
      <stop offset="100%" stop-color="#1a1a2e"/>
    </linearGradient>
  </defs>
  <rect width="800" height="500" fill="url(#bg)" rx="12"/>
  <rect x="40" y="40" width="720" height="60" rx="8" fill="#1e293b" opacity="0.6"/>
  <circle cx="70" cy="70" r="14" fill="#fbbf24"/>
  <rect x="100" y="60" width="100" height="20" rx="4" fill="#334155"/>
  <rect x="220" y="60" width="80" height="20" rx="4" fill="#334155"/>
  <rect x="320" y="60" width="80" height="20" rx="4" fill="#334155"/>
  <rect x="620" y="55" width="120" height="30" rx="15" fill="#fbbf24"/>
  <text x="400" y="220" font-family="system-ui" font-size="36" font-weight="700" fill="white" text-anchor="middle">Marketing Site</text>
  <text x="400" y="260" font-family="system-ui" font-size="16" fill="#94a3b8" text-anchor="middle">Hero, services, work showcase, pricing</text>
  <rect x="120" y="320" width="160" height="100" rx="8" fill="#1e293b"/>
  <rect x="320" y="320" width="160" height="100" rx="8" fill="#1e293b"/>
  <rect x="520" y="320" width="160" height="100" rx="8" fill="#1e293b"/>
  <rect x="40" y="460" width="720" height="1" fill="#334155"/>
</svg>
