<svg xmlns="http://www.w3.org/2000/svg" width="800" height="500" viewBox="0 0 800 500">
  <defs>
    <linearGradient id="bg" x1="0" y1="0" x2="800" y2="500" gradientUnits="userSpaceOnUse">
      <stop stop-color="#0a0a0a"/>
      <stop offset="1" stop-color="#0f172a"/>
    </linearGradient>
    <linearGradient id="accent" x1="0" y1="0" x2="200" y2="0" gradientUnits="userSpaceOnUse">
      <stop stop-color="#fbbf24"/>
      <stop offset="1" stop-color="#f59e0b"/>
    </linearGradient>
  </defs>

  <!-- Window chrome -->
  <rect width="800" height="500" rx="10" fill="url(#bg)"/>
  <rect width="800" height="36" rx="10" fill="#1e293b"/>
  <rect y="26" width="800" height="10" fill="#1e293b"/>
  <circle cx="20" cy="18" r="5" fill="#ef4444" opacity=".7"/>
  <circle cx="38" cy="18" r="5" fill="#eab308" opacity=".7"/>
  <circle cx="56" cy="18" r="5" fill="#22c55e" opacity=".7"/>
  <rect x="300" y="10" width="200" height="16" rx="4" fill="#0f172a"/>
  <text x="400" y="22" text-anchor="middle" font-family="ui-monospace,monospace" font-size="9" fill="#64748b">nexus-ai.techtideai.io</text>

  <!-- Nav bar -->
  <rect x="30" y="50" width="740" height="40" rx="6" fill="#1e293b" opacity=".4"/>
  <rect x="44" y="60" width="18" height="18" rx="4" fill="#fbbf24"/>
  <rect x="72" y="66" width="50" height="8" rx="2" fill="#f8fafc" opacity=".6"/>
  <rect x="540" y="66" width="36" height="8" rx="2" fill="#94a3b8" opacity=".4"/>
  <rect x="590" y="66" width="30" height="8" rx="2" fill="#94a3b8" opacity=".4"/>
  <rect x="634" y="66" width="40" height="8" rx="2" fill="#94a3b8" opacity=".4"/>
  <rect x="690" y="60" width="66" height="20" rx="10" fill="#fbbf24"/>
  <text x="723" y="74" text-anchor="middle" font-family="system-ui,sans-serif" font-size="8" font-weight="600" fill="#0a0a0a">Get started</text>

  <!-- Hero area -->
  <text x="60" y="160" font-family="system-ui,sans-serif" font-size="34" font-weight="800" fill="#f8fafc" letter-spacing="-1">Design that thinks</text>
  <text x="60" y="200" font-family="system-ui,sans-serif" font-size="34" font-weight="800" fill="#64748b" letter-spacing="-1">with you.</text>
  <rect x="60" y="220" width="340" height="10" rx="3" fill="#94a3b8" opacity=".25"/>
  <rect x="60" y="238" width="280" height="10" rx="3" fill="#94a3b8" opacity=".15"/>
  <rect x="60" y="264" width="110" height="34" rx="17" fill="url(#accent)"/>
  <text x="115" y="286" text-anchor="middle" font-family="system-ui,sans-serif" font-size="11" font-weight="600" fill="#0a0a0a">Start building</text>
  <rect x="182" y="264" width="100" height="34" rx="17" fill="none" stroke="#94a3b8" stroke-opacity=".3"/>
  <text x="232" y="286" text-anchor="middle" font-family="system-ui,sans-serif" font-size="11" font-weight="500" fill="#94a3b8">View work</text>

  <!-- Animated mesh placeholder -->
  <rect x="460" y="110" width="300" height="200" rx="12" fill="#1e293b" opacity=".3"/>
  <circle cx="560" cy="180" r="40" fill="#fbbf24" opacity=".06"/>
  <circle cx="660" cy="220" r="30" fill="#22d3ee" opacity=".04"/>
  <circle cx="610" cy="200" r="50" stroke="#fbbf24" stroke-opacity=".1" fill="none" stroke-width="1"/>

  <!-- Stats row -->
  <g font-family="system-ui,sans-serif">
    <text x="100" y="350" text-anchor="middle" font-size="22" font-weight="700" fill="#fbbf24">120+</text>
    <text x="100" y="368" text-anchor="middle" font-size="9" fill="#64748b">Brand systems</text>
    <text x="260" y="350" text-anchor="middle" font-size="22" font-weight="700" fill="#f8fafc">0&#x2192;1</text>
    <text x="260" y="368" text-anchor="middle" font-size="9" fill="#64748b">Studio partnerships</text>
    <text x="420" y="350" text-anchor="middle" font-size="22" font-weight="700" fill="#f8fafc">24h</text>
    <text x="420" y="368" text-anchor="middle" font-size="9" fill="#64748b">Brief to concept</text>
    <text x="580" y="350" text-anchor="middle" font-size="22" font-weight="700" fill="#f8fafc">&#x221E;</text>
    <text x="580" y="368" text-anchor="middle" font-size="9" fill="#64748b">Nightly variations</text>
  </g>

  <!-- Service cards preview -->
  <rect x="40" y="400" width="170" height="80" rx="8" fill="#1e293b" opacity=".5"/>
  <rect x="55" y="416" width="80" height="8" rx="2" fill="#f8fafc" opacity=".5"/>
  <rect x="55" y="432" width="120" height="6" rx="2" fill="#94a3b8" opacity=".2"/>
  <rect x="55" y="444" width="100" height="6" rx="2" fill="#94a3b8" opacity=".15"/>

  <rect x="225" y="400" width="170" height="80" rx="8" fill="#1e293b" opacity=".5"/>
  <rect x="240" y="416" width="90" height="8" rx="2" fill="#f8fafc" opacity=".5"/>
  <rect x="240" y="432" width="110" height="6" rx="2" fill="#94a3b8" opacity=".2"/>
  <rect x="240" y="444" width="80" height="6" rx="2" fill="#94a3b8" opacity=".15"/>

  <rect x="410" y="400" width="170" height="80" rx="8" fill="#1e293b" opacity=".5"/>
  <rect x="425" y="416" width="70" height="8" rx="2" fill="#f8fafc" opacity=".5"/>
  <rect x="425" y="432" width="130" height="6" rx="2" fill="#94a3b8" opacity=".2"/>
  <rect x="425" y="444" width="90" height="6" rx="2" fill="#94a3b8" opacity=".15"/>

  <rect x="595" y="400" width="170" height="80" rx="8" fill="#fbbf24" fill-opacity=".05" stroke="#fbbf24" stroke-opacity=".15"/>
  <rect x="610" y="416" width="100" height="8" rx="2" fill="#fbbf24" opacity=".5"/>
  <rect x="610" y="432" width="120" height="6" rx="2" fill="#fbbf24" opacity=".15"/>
  <rect x="610" y="444" width="80" height="6" rx="2" fill="#fbbf24" opacity=".1"/>

  <!-- Label -->
  <text x="400" y="496" text-anchor="middle" font-family="system-ui,sans-serif" font-size="10" fill="#334155">Marketing site  &#x2014;  Hero, Services, Work, Pricing, Testimonials</text>
</svg>
