<svg xmlns="http://www.w3.org/2000/svg" width="1280" height="640" fill="none" viewBox="0 0 1280 640">
  <defs>
    <linearGradient id="bg" x1="0" y1="0" x2="1280" y2="640" gradientUnits="userSpaceOnUse">
      <stop stop-color="#0a0a0a"/>
      <stop offset=".5" stop-color="#0f172a"/>
      <stop offset="1" stop-color="#0a0a0a"/>
    </linearGradient>
    <linearGradient id="accent" x1="0" y1="0" x2="300" y2="0" gradientUnits="userSpaceOnUse">
      <stop stop-color="#fbbf24"/>
      <stop offset="1" stop-color="#f59e0b"/>
    </linearGradient>
    <linearGradient id="glow" x1="640" y1="200" x2="640" y2="500" gradientUnits="userSpaceOnUse">
      <stop stop-color="#fbbf24" stop-opacity=".08"/>
      <stop offset="1" stop-color="#fbbf24" stop-opacity="0"/>
    </linearGradient>
  </defs>

  <!-- Background -->
  <rect width="1280" height="640" fill="url(#bg)"/>

  <!-- Subtle grid -->
  <g opacity=".04" stroke="#fff" stroke-width=".5">
    <line x1="0" y1="160" x2="1280" y2="160"/>
    <line x1="0" y1="320" x2="1280" y2="320"/>
    <line x1="0" y1="480" x2="1280" y2="480"/>
    <line x1="320" y1="0" x2="320" y2="640"/>
    <line x1="640" y1="0" x2="640" y2="640"/>
    <line x1="960" y1="0" x2="960" y2="640"/>
  </g>

  <!-- Warm glow behind logo -->
  <ellipse cx="640" cy="260" rx="320" ry="180" fill="url(#glow)"/>

  <!-- Logo mark -->
  <rect x="589" y="140" width="102" height="102" rx="24" fill="#fbbf24"/>
  <path d="M620 216V166l20 24 20-24v50" stroke="#0a0a0a" stroke-width="5" stroke-linecap="round" stroke-linejoin="round"/>

  <!-- Title -->
  <text x="640" y="310" text-anchor="middle" font-family="system-ui,-apple-system,'Segoe UI',Roboto,Helvetica,Arial,sans-serif" font-size="64" font-weight="800" fill="#fff" letter-spacing="-2">Nexus AI</text>

  <!-- Tagline -->
  <text x="640" y="360" text-anchor="middle" font-family="system-ui,-apple-system,'Segoe UI',Roboto,Helvetica,Arial,sans-serif" font-size="22" font-weight="400" fill="#94a3b8" letter-spacing="6" text-transform="uppercase">AI-NATIVE DESIGN STUDIO</text>

  <!-- Accent rule -->
  <rect x="560" y="390" width="160" height="2" rx="1" fill="url(#accent)" opacity=".5"/>

  <!-- Tech pills -->
  <g font-family="system-ui,-apple-system,'Segoe UI',Roboto,Helvetica,Arial,sans-serif" font-size="14" font-weight="500">
    <rect x="348" y="430" width="100" height="32" rx="16" fill="#fff" fill-opacity=".06" stroke="#fff" stroke-opacity=".12"/>
    <text x="398" y="451" text-anchor="middle" fill="#94a3b8">Next.js 16</text>

    <rect x="468" y="430" width="80" height="32" rx="16" fill="#fff" fill-opacity=".06" stroke="#fff" stroke-opacity=".12"/>
    <text x="508" y="451" text-anchor="middle" fill="#94a3b8">React 19</text>

    <rect x="568" y="430" width="100" height="32" rx="16" fill="#fff" fill-opacity=".06" stroke="#fff" stroke-opacity=".12"/>
    <text x="618" y="451" text-anchor="middle" fill="#94a3b8">Tailwind v4</text>

    <rect x="688" y="430" width="90" height="32" rx="16" fill="#fff" fill-opacity=".06" stroke="#fff" stroke-opacity=".12"/>
    <text x="733" y="451" text-anchor="middle" fill="#94a3b8">AI SDK v6</text>

    <rect x="798" y="430" width="100" height="32" rx="16" fill="#fff" fill-opacity=".06" stroke="#fff" stroke-opacity=".12"/>
    <text x="848" y="451" text-anchor="middle" fill="#94a3b8">Supabase</text>
  </g>

  <!-- URL -->
  <text x="640" y="540" text-anchor="middle" font-family="ui-monospace,SFMono-Regular,'SF Mono',Menlo,Consolas,monospace" font-size="15" fill="#64748b">nexus-ai.techtideai.io</text>

  <!-- Corner accents -->
  <rect x="40" y="40" width="40" height="2" rx="1" fill="#fbbf24" opacity=".3"/>
  <rect x="40" y="40" width="2" height="40" rx="1" fill="#fbbf24" opacity=".3"/>
  <rect x="1200" y="598" width="40" height="2" rx="1" fill="#fbbf24" opacity=".3"/>
  <rect x="1238" y="560" width="2" height="40" rx="1" fill="#fbbf24" opacity=".3"/>
</svg>
